<svg width="428" height="93" viewBox="0 0 428 93" fill="none" xmlns="http://www.w3.org/2000/svg">
<mask id="mask0_503_248" style="mask-type:alpha" maskUnits="userSpaceOnUse" x="336" y="0" width="92" height="93">
<path fill-rule="evenodd" clip-rule="evenodd" d="M354.689 92.335C360.844 92.335 366.308 88.3969 368.254 82.5584H396.497C398.444 88.3969 403.908 92.335 410.062 92.335H428L393.239 0C380.167 0 368.463 8.09946 363.858 20.3327L336.751 92.335H354.689ZM387.155 58.6599L382.376 46.7107L377.596 58.6599H387.155Z" fill="#281F5D"/>
</mask>
<g mask="url(#mask0_503_248)">
<path fill-rule="evenodd" clip-rule="evenodd" d="M354.689 92.335C360.844 92.335 366.308 88.3969 368.254 82.5584H396.497C398.444 88.3969 403.908 92.335 410.062 92.335H428L393.239 0C380.167 0 368.463 8.09946 363.858 20.3327L336.751 92.335H354.689ZM387.155 58.6599L382.376 46.7107L377.596 58.6599H387.155Z" fill="#281F5D"/>
<path fill-rule="evenodd" clip-rule="evenodd" d="M382.376 46.7107H397.543C405.357 46.7107 412.397 51.431 415.364 58.6599L428 92.3351H399.756L382.376 46.7107Z" fill="#ED562A"/>
<path fill-rule="evenodd" clip-rule="evenodd" d="M340.41 82.5584C344.658 68.3751 357.71 58.6599 372.516 58.6599H415.364C417.674 71.0859 408.137 82.5584 395.499 82.5584H340.41Z" fill="#FCBC10"/>
</g>
<mask id="mask1_503_248" style="mask-type:alpha" maskUnits="userSpaceOnUse" x="265" y="0" width="70" height="93">
<path d="M334.579 92.335V89.0761C334.579 77.0773 324.852 67.3503 312.853 67.3503H295.472V30.4162C295.472 13.6178 281.854 0 265.056 0L265.056 70.6091C265.056 82.608 274.783 92.335 286.782 92.335H334.579Z" fill="#281F5D"/>
</mask>
<g mask="url(#mask1_503_248)">
<path d="M334.579 92.335V89.0761C334.579 77.0773 324.852 67.3503 312.853 67.3503H295.472V30.4162C295.472 13.6178 281.854 0 265.056 0L265.056 70.6091C265.056 82.608 274.783 92.335 286.782 92.335H334.579Z" fill="#281F5D"/>
<path d="M265.056 21.7258H295.472V64.0913C295.472 80.8897 281.854 94.5076 265.056 94.5076V21.7258Z" fill="#0A6F6C"/>
<path d="M265.056 0H295.472V42.3655C295.472 59.1639 281.854 72.7817 265.056 72.7817V0Z" fill="#FCBC10"/>
</g>
<mask id="mask2_503_248" style="mask-type:alpha" maskUnits="userSpaceOnUse" x="171" y="0" width="92" height="93">
<path fill-rule="evenodd" clip-rule="evenodd" d="M189.573 92.335C195.727 92.335 201.191 88.3969 203.137 82.5584H231.381C233.327 88.3969 238.791 92.335 244.945 92.335H262.883L228.122 0C215.05 0 203.347 8.09946 198.741 20.3327L171.635 92.335H189.573ZM222.039 58.6599L217.259 46.7107L212.479 58.6599H222.039Z" fill="#281F5D"/>
</mask>
<g mask="url(#mask2_503_248)">
<path fill-rule="evenodd" clip-rule="evenodd" d="M189.573 92.335C195.727 92.335 201.191 88.3969 203.137 82.5584H231.381C233.327 88.3969 238.791 92.335 244.945 92.335H262.883L228.122 0C215.05 0 203.347 8.09946 198.741 20.3327L171.635 92.335H189.573ZM222.039 58.6599L217.259 46.7107L212.479 58.6599H222.039Z" fill="#281F5D"/>
<path fill-rule="evenodd" clip-rule="evenodd" d="M217.259 46.7107C211.575 31.3045 215.055 14.0104 226.255 2.00157L228.122 0L262.883 92.335H235.436L217.259 46.7107Z" fill="#FCBC10"/>
<path fill-rule="evenodd" clip-rule="evenodd" d="M255.741 73.3488C249.712 57.3226 234.382 46.7107 217.259 46.7107L223.777 63.0058L231.381 82.5599L234.64 92.3351H262.883L255.741 73.3488Z" fill="#ED562A"/>
</g>
<mask id="mask3_503_248" style="mask-type:alpha" maskUnits="userSpaceOnUse" x="93" y="0" width="77" height="93">
<path fill-rule="evenodd" clip-rule="evenodd" d="M167.385 33.132C167.385 14.8337 152.747 0 134.691 0C133.007 0 113.426 0.00319642 113.426 0.00319642C102.345 0.198973 93.4213 9.36323 93.4213 20.6396L93.4252 92.335H98.5334C111.309 92.335 121.665 81.9787 121.665 69.2035C131.442 86.1957 145.601 92.335 161.858 92.335H169.462L152.214 61.8585C152.214 61.8585 167.385 50.3708 167.385 33.132ZM121.665 24.9848V44.5381H123.071C126.308 44.5381 129.056 43.7894 131.314 42.2921C133.572 40.7948 134.701 38.2845 134.701 34.7614C134.701 31.2383 133.572 28.7281 131.314 27.2308C129.056 25.7334 126.308 24.9848 123.071 24.9848H121.665Z" fill="#281F5D"/>
</mask>
<g mask="url(#mask3_503_248)">
<path fill-rule="evenodd" clip-rule="evenodd" d="M167.385 33.132C167.385 14.8337 152.747 0 134.691 0C133.007 0 113.426 0.00319642 113.426 0.00319642C102.345 0.198973 93.4213 9.36323 93.4213 20.6396L93.4252 92.335H98.5334C111.309 92.335 121.665 81.9787 121.665 69.2035C131.442 86.1957 145.601 92.335 161.858 92.335H169.462L152.214 61.8585C152.214 61.8585 167.385 50.3708 167.385 33.132ZM121.665 24.9848V44.5381H123.071C126.308 44.5381 129.056 43.7894 131.314 42.2921C133.572 40.7948 134.701 38.2845 134.701 34.7614C134.701 31.2383 133.572 28.7281 131.314 27.2308C129.056 25.7334 126.308 24.9848 123.071 24.9848H121.665Z" fill="#281F5D"/>
<path fill-rule="evenodd" clip-rule="evenodd" d="M93.4213 24.9849C93.4213 17.1856 99.7439 10.863 107.543 10.863C115.342 10.863 121.665 17.1856 121.665 24.9849V95.594H93.4213V24.9849Z" fill="#ED562A"/>
<path d="M93.4213 63.0051C93.4213 47.4066 106.066 34.7615 121.665 34.7615V92.3351H93.4213V63.0051Z" fill="#0A6F6C"/>
</g>
<mask id="mask4_503_248" style="mask-type:alpha" maskUnits="userSpaceOnUse" x="0" y="0" width="87" height="93">
<path d="M28.2437 92.335C45.0421 92.335 58.6599 78.7172 58.6599 61.9188V24.9848H86.9036C86.9036 11.1861 75.7175 0 61.9188 0H0C0 13.7987 11.1861 24.9848 24.9848 24.9848H28.2437V92.335Z" fill="white"/>
</mask>
<g mask="url(#mask4_503_248)">
<path d="M28.2437 92.335C45.0421 92.335 58.6599 78.7172 58.6599 61.9188V24.9848H86.9036C86.9036 11.1861 75.7175 0 61.9188 0H0C0 13.7987 11.1861 24.9848 24.9848 24.9848H28.2437V92.335Z" fill="#281F5D"/>
<path d="M28.2437 24.9849H58.6599C58.6599 41.7833 45.0421 55.4011 28.2437 55.4011V24.9849Z" fill="#ED562A"/>
<rect width="86.9035" height="24.9848" fill="#FCBC10"/>
</g>
</svg>
